<svg width="60" height="60" viewBox="0 0 60 60" fill="none" xmlns="http://www.w3.org/2000/svg">
<circle cx="30" cy="30" r="28" stroke="#A7649F" stroke-width="4"/>
<path d="M29.7969 21.9375V39H25.6953V32.6953L24.4883 32.8477L22.9766 32.9414C20.6797 32.9414 18.9219 32.4453 17.7031 31.4531C16.4844 30.4531 15.8672 29.0391 15.8516 27.2109V21.9375H19.9648V27.1523C19.9648 28.082 20.1875 28.7539 20.6328 29.168C21.0859 29.5742 21.8672 29.7773 22.9766 29.7773L23.3281 29.7656C24.2891 29.7188 25.0781 29.6445 25.6953 29.543V21.9375H29.7969ZM36.4766 33.2109V39H32.3633V21.9375H39.1719C40.4766 21.9375 41.6289 22.1797 42.6289 22.6641C43.6367 23.1406 44.4141 23.8242 44.9609 24.7148C45.5156 25.5977 45.793 26.6016 45.793 27.7266C45.793 29.3906 45.1953 30.7227 44 31.7227C42.8125 32.7148 41.1797 33.2109 39.1016 33.2109H36.4766ZM36.4766 30.0352H39.1719C39.9688 30.0352 40.5742 29.8359 40.9883 29.4375C41.4102 29.0391 41.6211 28.4766 41.6211 27.75C41.6211 26.9531 41.4062 26.3164 40.9766 25.8398C40.5469 25.3633 39.9609 25.1211 39.2188 25.1133H36.4766V30.0352Z" fill="#A7649F"/>
</svg>
