<svg width="186" height="60" viewBox="0 0 186 60" fill="none" xmlns="http://www.w3.org/2000/svg">
<path d="M20.3893 26.052V51H14.4853V41.784C13.6453 42.432 12.7813 42.912 11.8933 43.224C11.0293 43.536 10.0453 43.692 8.94131 43.692C6.51731 43.692 4.62131 42.924 3.25331 41.388C1.88531 39.852 1.20131 37.764 1.20131 35.124V26.052H7.03331V35.052C7.03331 36.516 7.32131 37.596 7.89731 38.292C8.47331 38.964 9.38531 39.3 10.6333 39.3C12.2173 39.3 13.5013 38.832 14.4853 37.896V26.052H20.3893ZM40.1584 45.456C40.1584 46.176 40.2544 46.704 40.4464 47.04C40.6624 47.376 40.9984 47.628 41.4544 47.796L40.2664 51.504C39.0904 51.408 38.1304 51.156 37.3864 50.748C36.6424 50.316 36.0664 49.644 35.6584 48.732C34.4104 50.652 32.4904 51.612 29.8984 51.612C28.0024 51.612 26.4904 51.06 25.3624 49.956C24.2344 48.852 23.6704 47.412 23.6704 45.636C23.6704 43.548 24.4384 41.952 25.9744 40.848C27.5104 39.744 29.7304 39.192 32.6344 39.192H34.5784V38.364C34.5784 37.236 34.3384 36.468 33.8584 36.06C33.3784 35.628 32.5384 35.412 31.3384 35.412C30.7144 35.412 29.9584 35.508 29.0704 35.7C28.1824 35.868 27.2704 36.108 26.3344 36.42L25.0384 32.676C26.2384 32.22 27.4624 31.872 28.7104 31.632C29.9824 31.392 31.1584 31.272 32.2384 31.272C34.9744 31.272 36.9784 31.836 38.2504 32.964C39.5224 34.092 40.1584 35.784 40.1584 38.04V45.456ZM31.5544 47.544C32.8504 47.544 33.8584 46.932 34.5784 45.708V42.324H33.1744C31.8784 42.324 30.9064 42.552 30.2584 43.008C29.6344 43.464 29.3224 44.172 29.3224 45.132C29.3224 45.9 29.5144 46.5 29.8984 46.932C30.3064 47.34 30.8584 47.544 31.5544 47.544ZM62.113 46.824V56.976H58.153L57.505 51H47.065L46.417 56.976H42.457V46.824H43.645C44.077 46.512 44.425 46.116 44.689 45.636C44.977 45.132 45.229 44.316 45.445 43.188C45.685 42.06 45.889 40.452 46.057 38.364L46.597 31.884H60.097V46.824H62.113ZM54.769 35.628H51.457L51.277 37.86C51.109 39.78 50.893 41.328 50.629 42.504C50.389 43.656 50.053 44.568 49.621 45.24C49.189 45.888 48.613 46.416 47.893 46.824H54.769V35.628ZM72.7972 31.272C75.7252 31.272 78.0172 32.172 79.6732 33.972C81.3292 35.748 82.1572 38.244 82.1572 41.46C82.1572 43.5 81.7732 45.288 81.0052 46.824C80.2612 48.336 79.1812 49.512 77.7652 50.352C76.3732 51.192 74.7172 51.612 72.7972 51.612C69.8932 51.612 67.6012 50.724 65.9212 48.948C64.2652 47.148 63.4372 44.64 63.4372 41.424C63.4372 39.384 63.8092 37.608 64.5532 36.096C65.3212 34.56 66.4012 33.372 67.7932 32.532C69.2092 31.692 70.8772 31.272 72.7972 31.272ZM72.7972 35.448C71.6452 35.448 70.7812 35.94 70.2052 36.924C69.6292 37.884 69.3412 39.384 69.3412 41.424C69.3412 43.512 69.6172 45.036 70.1692 45.996C70.7452 46.956 71.6212 47.436 72.7972 47.436C73.9492 47.436 74.8132 46.956 75.3892 45.996C75.9652 45.012 76.2532 43.5 76.2532 41.46C76.2532 39.372 75.9652 37.848 75.3892 36.888C74.8372 35.928 73.9732 35.448 72.7972 35.448ZM104.884 31.272C107.284 31.272 109.072 32.16 110.248 33.936C111.424 35.712 112.012 38.196 112.012 41.388C112.012 43.356 111.7 45.12 111.076 46.68C110.476 48.216 109.6 49.428 108.448 50.316C107.296 51.18 105.952 51.612 104.416 51.612C102.496 51.612 100.948 50.952 99.7716 49.632V58.38L94.0836 58.992V31.884H99.0876L99.3756 34.008C100.12 33.072 100.972 32.388 101.932 31.956C102.892 31.5 103.876 31.272 104.884 31.272ZM102.688 47.436C104.968 47.436 106.108 45.444 106.108 41.46C106.108 39.204 105.856 37.644 105.352 36.78C104.848 35.892 104.092 35.448 103.084 35.448C102.436 35.448 101.824 35.64 101.248 36.024C100.696 36.408 100.204 36.96 99.7716 37.68V45.744C100.54 46.872 101.512 47.436 102.688 47.436ZM130.404 45.456C130.404 46.176 130.5 46.704 130.692 47.04C130.908 47.376 131.244 47.628 131.7 47.796L130.512 51.504C129.336 51.408 128.376 51.156 127.632 50.748C126.888 50.316 126.312 49.644 125.904 48.732C124.656 50.652 122.736 51.612 120.144 51.612C118.248 51.612 116.736 51.06 115.608 49.956C114.48 48.852 113.916 47.412 113.916 45.636C113.916 43.548 114.684 41.952 116.22 40.848C117.756 39.744 119.976 39.192 122.88 39.192H124.824V38.364C124.824 37.236 124.584 36.468 124.104 36.06C123.624 35.628 122.784 35.412 121.584 35.412C120.96 35.412 120.204 35.508 119.316 35.7C118.428 35.868 117.516 36.108 116.58 36.42L115.284 32.676C116.484 32.22 117.708 31.872 118.956 31.632C120.228 31.392 121.404 31.272 122.484 31.272C125.22 31.272 127.224 31.836 128.496 32.964C129.768 34.092 130.404 35.784 130.404 38.04V45.456ZM121.8 47.544C123.096 47.544 124.104 46.932 124.824 45.708V42.324H123.42C122.124 42.324 121.152 42.552 120.504 43.008C119.88 43.464 119.568 44.172 119.568 45.132C119.568 45.9 119.76 46.5 120.144 46.932C120.552 47.34 121.104 47.544 121.8 47.544ZM152.359 46.824V56.976H148.399L147.751 51H137.311L136.663 56.976H132.703V46.824H133.891C134.323 46.512 134.671 46.116 134.935 45.636C135.223 45.132 135.475 44.316 135.691 43.188C135.931 42.06 136.135 40.452 136.303 38.364L136.843 31.884H150.343V46.824H152.359ZM145.015 35.628H141.703L141.523 37.86C141.355 39.78 141.139 41.328 140.875 42.504C140.635 43.656 140.299 44.568 139.867 45.24C139.435 45.888 138.859 46.416 138.139 46.824H145.015V35.628ZM163.043 31.272C165.971 31.272 168.263 32.172 169.919 33.972C171.575 35.748 172.403 38.244 172.403 41.46C172.403 43.5 172.019 45.288 171.251 46.824C170.507 48.336 169.427 49.512 168.011 50.352C166.619 51.192 164.963 51.612 163.043 51.612C160.139 51.612 157.847 50.724 156.167 48.948C154.511 47.148 153.683 44.64 153.683 41.424C153.683 39.384 154.055 37.608 154.799 36.096C155.567 34.56 156.647 33.372 158.039 32.532C159.455 31.692 161.123 31.272 163.043 31.272ZM163.043 35.448C161.891 35.448 161.027 35.94 160.451 36.924C159.875 37.884 159.587 39.384 159.587 41.424C159.587 43.512 159.863 45.036 160.415 45.996C160.991 46.956 161.867 47.436 163.043 47.436C164.195 47.436 165.059 46.956 165.635 45.996C166.211 45.012 166.499 43.5 166.499 41.46C166.499 39.372 166.211 37.848 165.635 36.888C165.083 35.928 164.219 35.448 163.043 35.448Z" fill="#A7649F"/>
<path d="M36.4607 24.75V29.988H34.4087L34.0847 27H27.4967L27.1727 29.988H25.1207V24.75H26.0387C26.2907 24.462 26.4947 24.096 26.6507 23.652C26.8187 23.196 26.9687 22.578 27.1007 21.798C27.2447 21.018 27.4127 19.902 27.6047 18.45L28.0907 14.526H35.3627V24.75H36.4607ZM32.5007 16.704H30.5747L30.4307 18.198C30.2867 19.59 30.1247 20.7 29.9447 21.528C29.7767 22.356 29.5667 23.022 29.3147 23.526C29.0747 24.018 28.7567 24.426 28.3607 24.75H32.5007V16.704ZM46.5026 22.032C46.5026 22.428 46.4846 22.77 46.4486 23.058H40.5266C40.6226 23.862 40.8506 24.426 41.2106 24.75C41.5706 25.074 42.0686 25.236 42.7046 25.236C43.0886 25.236 43.4606 25.17 43.8206 25.038C44.1806 24.894 44.5706 24.678 44.9906 24.39L46.1606 25.974C45.0446 26.862 43.8026 27.306 42.4346 27.306C40.8866 27.306 39.6986 26.85 38.8706 25.938C38.0426 25.026 37.6286 23.802 37.6286 22.266C37.6286 21.294 37.8026 20.424 38.1506 19.656C38.4986 18.876 39.0086 18.264 39.6806 17.82C40.3526 17.364 41.1566 17.136 42.0926 17.136C43.4726 17.136 44.5526 17.568 45.3326 18.432C46.1126 19.296 46.5026 20.496 46.5026 22.032ZM43.7126 21.222C43.6886 19.758 43.1726 19.026 42.1646 19.026C41.6726 19.026 41.2886 19.206 41.0126 19.566C40.7486 19.926 40.5866 20.52 40.5266 21.348H43.7126V21.222ZM55.4912 17.442L55.1492 19.548H52.5572V27H49.7132V19.548H46.9232V17.442H55.4912ZM60.5364 17.136C61.1964 17.136 61.7904 17.232 62.3184 17.424C62.8464 17.616 63.3444 17.91 63.8124 18.306L62.5884 19.998C61.9884 19.542 61.3824 19.314 60.7704 19.314C60.1344 19.314 59.6544 19.548 59.3304 20.016C59.0064 20.484 58.8444 21.24 58.8444 22.284C58.8444 23.292 59.0064 24.006 59.3304 24.426C59.6544 24.846 60.1224 25.056 60.7344 25.056C61.0584 25.056 61.3524 25.008 61.6164 24.912C61.8804 24.804 62.1984 24.636 62.5704 24.408L63.8124 26.172C62.8644 26.928 61.7904 27.306 60.5904 27.306C59.6184 27.306 58.7784 27.102 58.0704 26.694C57.3624 26.274 56.8164 25.692 56.4324 24.948C56.0484 24.192 55.8564 23.31 55.8564 22.302C55.8564 21.294 56.0484 20.4 56.4324 19.62C56.8164 18.84 57.3624 18.234 58.0704 17.802C58.7784 17.358 59.6004 17.136 60.5364 17.136ZM73.9557 17.442L71.4177 21.87L74.1717 27H71.1657L69.0777 22.896H68.2137V27H65.3697V17.442H68.2137V21.168H69.1497L71.2197 17.442H73.9557ZM83.997 27H81.297V23.598C81.297 22.926 81.333 22.29 81.405 21.69C81.477 21.09 81.567 20.586 81.675 20.178L78.489 27H75.591V17.442H78.309V20.898C78.309 21.534 78.267 22.158 78.183 22.77C78.111 23.382 78.027 23.886 77.931 24.282L81.081 17.442H83.997V27ZM94.9918 27H92.2918V23.598C92.2918 22.926 92.3278 22.29 92.3998 21.69C92.4718 21.09 92.5618 20.586 92.6698 20.178L89.4838 27H86.5858V17.442H89.3038V20.898C89.3038 21.534 89.2618 22.158 89.1778 22.77C89.1058 23.382 89.0218 23.886 88.9258 24.282L92.0758 17.442H94.9918V27ZM90.7798 15.624C89.8558 15.624 89.1238 15.372 88.5838 14.868C88.0558 14.364 87.7558 13.692 87.6838 12.852L89.2498 12.564C89.3578 12.948 89.5318 13.224 89.7718 13.392C90.0238 13.56 90.3598 13.644 90.7798 13.644C91.1998 13.644 91.5298 13.56 91.7698 13.392C92.0218 13.224 92.2078 12.948 92.3278 12.564L93.8938 12.852C93.8218 13.692 93.5158 14.364 92.9758 14.868C92.4358 15.372 91.7038 15.624 90.7798 15.624ZM112.67 27H109.97L109.754 23.58C109.73 22.98 109.718 22.548 109.718 22.284C109.718 21.696 109.748 20.91 109.808 19.926L108.26 26.028H105.902L104.408 19.944C104.468 20.568 104.498 21.282 104.498 22.086C104.498 22.41 104.486 22.908 104.462 23.58L104.3 27H101.618L102.428 17.442H105.776L107.09 23.598L108.44 17.442H111.842L112.67 27ZM122.262 24.228C122.262 24.588 122.31 24.852 122.406 25.02C122.514 25.188 122.682 25.314 122.91 25.398L122.316 27.252C121.728 27.204 121.248 27.078 120.876 26.874C120.504 26.658 120.216 26.322 120.012 25.866C119.388 26.826 118.428 27.306 117.132 27.306C116.184 27.306 115.428 27.03 114.864 26.478C114.3 25.926 114.018 25.206 114.018 24.318C114.018 23.274 114.402 22.476 115.17 21.924C115.938 21.372 117.048 21.096 118.5 21.096H119.472V20.682C119.472 20.118 119.352 19.734 119.112 19.53C118.872 19.314 118.452 19.206 117.852 19.206C117.54 19.206 117.162 19.254 116.718 19.35C116.274 19.434 115.818 19.554 115.35 19.71L114.702 17.838C115.302 17.61 115.914 17.436 116.538 17.316C117.174 17.196 117.762 17.136 118.302 17.136C119.67 17.136 120.672 17.418 121.308 17.982C121.944 18.546 122.262 19.392 122.262 20.52V24.228ZM117.96 25.272C118.608 25.272 119.112 24.966 119.472 24.354V22.662H118.77C118.122 22.662 117.636 22.776 117.312 23.004C117 23.232 116.844 23.586 116.844 24.066C116.844 24.45 116.94 24.75 117.132 24.966C117.336 25.17 117.612 25.272 117.96 25.272ZM127.731 27H124.887V17.442H131.655L131.313 19.602H127.731V27ZM139.91 24.228C139.91 24.588 139.958 24.852 140.054 25.02C140.162 25.188 140.33 25.314 140.558 25.398L139.964 27.252C139.376 27.204 138.896 27.078 138.524 26.874C138.152 26.658 137.864 26.322 137.66 25.866C137.036 26.826 136.076 27.306 134.78 27.306C133.832 27.306 133.076 27.03 132.512 26.478C131.948 25.926 131.666 25.206 131.666 24.318C131.666 23.274 132.05 22.476 132.818 21.924C133.586 21.372 134.696 21.096 136.148 21.096H137.12V20.682C137.12 20.118 137 19.734 136.76 19.53C136.52 19.314 136.1 19.206 135.5 19.206C135.188 19.206 134.81 19.254 134.366 19.35C133.922 19.434 133.466 19.554 132.998 19.71L132.35 17.838C132.95 17.61 133.562 17.436 134.186 17.316C134.822 17.196 135.41 17.136 135.95 17.136C137.318 17.136 138.32 17.418 138.956 17.982C139.592 18.546 139.91 19.392 139.91 20.52V24.228ZM135.608 25.272C136.256 25.272 136.76 24.966 137.12 24.354V22.662H136.418C135.77 22.662 135.284 22.776 134.96 23.004C134.648 23.232 134.492 23.586 134.492 24.066C134.492 24.45 134.588 24.75 134.78 24.966C134.984 25.17 135.26 25.272 135.608 25.272ZM145.577 17.136C146.645 17.136 147.533 17.376 148.241 17.856C148.961 18.324 149.321 18.966 149.321 19.782C149.321 20.838 148.625 21.546 147.233 21.906C148.085 22.026 148.721 22.278 149.141 22.662C149.573 23.034 149.789 23.562 149.789 24.246C149.789 25.242 149.381 26.004 148.565 26.532C147.761 27.048 146.693 27.306 145.361 27.306C143.813 27.306 142.517 26.922 141.473 26.154L142.805 24.57C143.237 24.834 143.639 25.02 144.011 25.128C144.383 25.224 144.803 25.272 145.271 25.272C146.327 25.272 146.855 24.876 146.855 24.084C146.855 23.364 146.303 23.004 145.199 23.004H143.705L143.867 21.168H144.983C145.451 21.168 145.811 21.078 146.063 20.898C146.327 20.706 146.459 20.43 146.459 20.07C146.459 19.746 146.339 19.506 146.099 19.35C145.871 19.182 145.565 19.098 145.181 19.098C144.773 19.098 144.407 19.152 144.083 19.26C143.759 19.368 143.423 19.53 143.075 19.746L141.761 18.252C142.301 17.88 142.877 17.604 143.489 17.424C144.113 17.232 144.809 17.136 145.577 17.136ZM160.266 27H157.566V23.598C157.566 22.926 157.602 22.29 157.674 21.69C157.746 21.09 157.836 20.586 157.944 20.178L154.758 27H151.86V17.442H154.578V20.898C154.578 21.534 154.536 22.158 154.452 22.77C154.38 23.382 154.296 23.886 154.2 24.282L157.35 17.442H160.266V27ZM168.326 27V23.202H165.698V27H162.854V17.442H165.698V21.096H168.326V17.442H171.17V27H168.326Z" fill="#2D81B7"/>
</svg>
